<mxfile host="app.diagrams.net" modified="2023-08-30T07:42:52.201Z" agent="Mozilla/5.0 (Windows NT 10.0; Win64; x64) AppleWebKit/537.36 (KHTML, like Gecko) Chrome/116.0.0.0 Safari/537.36" etag="tipAS-UcAidv2HuRrdpi" version="21.6.9" type="github">
  <diagram name="Page-1" id="bZFGKC0T0hw_HrP4qDCc">
    <mxGraphModel dx="1120" dy="484" grid="1" gridSize="10" guides="1" tooltips="1" connect="1" arrows="1" fold="1" page="1" pageScale="1" pageWidth="850" pageHeight="1100" math="0" shadow="0">
      <root>
        <mxCell id="0" />
        <mxCell id="1" parent="0" />
        <mxCell id="xyXlI8KWneuc3D06vrpU-11" style="edgeStyle=orthogonalEdgeStyle;rounded=0;orthogonalLoop=1;jettySize=auto;html=1;entryX=0.5;entryY=0;entryDx=0;entryDy=0;" parent="1" source="xyXlI8KWneuc3D06vrpU-1" edge="1">
          <mxGeometry relative="1" as="geometry">
            <mxPoint x="143" y="200" as="targetPoint" />
          </mxGeometry>
        </mxCell>
        <mxCell id="xyXlI8KWneuc3D06vrpU-17" style="edgeStyle=orthogonalEdgeStyle;rounded=0;orthogonalLoop=1;jettySize=auto;html=1;" parent="1" source="xyXlI8KWneuc3D06vrpU-1" edge="1">
          <mxGeometry relative="1" as="geometry">
            <mxPoint x="388" y="80" as="targetPoint" />
          </mxGeometry>
        </mxCell>
        <mxCell id="xyXlI8KWneuc3D06vrpU-1" value="&lt;font style=&quot;font-size: 24px;&quot;&gt;&lt;b&gt;Student&lt;/b&gt;&lt;/font&gt;" style="whiteSpace=wrap;html=1;" parent="1" vertex="1">
          <mxGeometry x="83" y="50" width="120" height="60" as="geometry" />
        </mxCell>
        <mxCell id="xyXlI8KWneuc3D06vrpU-47" style="edgeStyle=orthogonalEdgeStyle;rounded=0;orthogonalLoop=1;jettySize=auto;html=1;entryX=0.606;entryY=0.976;entryDx=0;entryDy=0;entryPerimeter=0;" parent="1" source="xyXlI8KWneuc3D06vrpU-6" target="xyXlI8KWneuc3D06vrpU-27" edge="1">
          <mxGeometry relative="1" as="geometry" />
        </mxCell>
        <mxCell id="xyXlI8KWneuc3D06vrpU-48" value="&lt;font style=&quot;font-size: 14px;&quot;&gt;validtion&lt;/font&gt;" style="edgeLabel;html=1;align=center;verticalAlign=middle;resizable=0;points=[];" parent="xyXlI8KWneuc3D06vrpU-47" vertex="1" connectable="0">
          <mxGeometry x="-0.4023" y="2" relative="1" as="geometry">
            <mxPoint as="offset" />
          </mxGeometry>
        </mxCell>
        <mxCell id="xyXlI8KWneuc3D06vrpU-6" value="&lt;font style=&quot;font-size: 24px;&quot;&gt;&lt;b&gt;Database&lt;/b&gt;&lt;/font&gt;" style="shape=cylinder3;whiteSpace=wrap;html=1;boundedLbl=1;backgroundOutline=1;size=15;" parent="1" vertex="1">
          <mxGeometry x="350.93" y="420" width="195.63" height="190" as="geometry" />
        </mxCell>
        <mxCell id="xyXlI8KWneuc3D06vrpU-34" style="edgeStyle=orthogonalEdgeStyle;rounded=0;orthogonalLoop=1;jettySize=auto;html=1;entryX=-0.003;entryY=0.735;entryDx=0;entryDy=0;entryPerimeter=0;" parent="1" source="xyXlI8KWneuc3D06vrpU-27" target="xyXlI8KWneuc3D06vrpU-28" edge="1">
          <mxGeometry relative="1" as="geometry" />
        </mxCell>
        <mxCell id="xyXlI8KWneuc3D06vrpU-37" style="edgeStyle=orthogonalEdgeStyle;rounded=0;orthogonalLoop=1;jettySize=auto;html=1;entryX=0;entryY=0;entryDx=0;entryDy=135;entryPerimeter=0;" parent="1" source="xyXlI8KWneuc3D06vrpU-27" target="xyXlI8KWneuc3D06vrpU-6" edge="1">
          <mxGeometry relative="1" as="geometry">
            <Array as="points">
              <mxPoint x="120" y="555" />
            </Array>
          </mxGeometry>
        </mxCell>
        <mxCell id="xyXlI8KWneuc3D06vrpU-44" value="&lt;font style=&quot;font-size: 14px;&quot;&gt;store user details in data base&lt;/font&gt;" style="edgeLabel;html=1;align=center;verticalAlign=middle;resizable=0;points=[];" parent="xyXlI8KWneuc3D06vrpU-37" vertex="1" connectable="0">
          <mxGeometry x="0.4694" relative="1" as="geometry">
            <mxPoint as="offset" />
          </mxGeometry>
        </mxCell>
        <mxCell id="xyXlI8KWneuc3D06vrpU-27" value="&lt;b style=&quot;border-color: var(--border-color);&quot;&gt;&lt;font style=&quot;font-size: 18px;&quot;&gt;Registeration&lt;/font&gt;&lt;/b&gt;" style="ellipse;whiteSpace=wrap;html=1;aspect=fixed;" parent="1" vertex="1">
          <mxGeometry x="84" y="199" width="122" height="122" as="geometry" />
        </mxCell>
        <mxCell id="xyXlI8KWneuc3D06vrpU-35" value="" style="edgeStyle=orthogonalEdgeStyle;rounded=0;orthogonalLoop=1;jettySize=auto;html=1;" parent="1" source="xyXlI8KWneuc3D06vrpU-28" target="xyXlI8KWneuc3D06vrpU-30" edge="1">
          <mxGeometry relative="1" as="geometry" />
        </mxCell>
        <mxCell id="xyXlI8KWneuc3D06vrpU-28" value="&lt;b style=&quot;border-color: var(--border-color);&quot;&gt;&lt;font style=&quot;font-size: 18px;&quot;&gt;Login&lt;/font&gt;&lt;/b&gt;" style="ellipse;whiteSpace=wrap;html=1;aspect=fixed;" parent="1" vertex="1">
          <mxGeometry x="393.06" y="30" width="122" height="122" as="geometry" />
        </mxCell>
        <mxCell id="xyXlI8KWneuc3D06vrpU-50" style="edgeStyle=orthogonalEdgeStyle;rounded=0;orthogonalLoop=1;jettySize=auto;html=1;" parent="1" source="xyXlI8KWneuc3D06vrpU-30" edge="1">
          <mxGeometry relative="1" as="geometry">
            <mxPoint x="700" y="262" as="targetPoint" />
          </mxGeometry>
        </mxCell>
        <mxCell id="xyXlI8KWneuc3D06vrpU-30" value="&lt;b style=&quot;border-color: var(--border-color);&quot;&gt;&lt;font style=&quot;font-size: 18px;&quot;&gt;Authentication&lt;/font&gt;&lt;/b&gt;" style="ellipse;whiteSpace=wrap;html=1;aspect=fixed;" parent="1" vertex="1">
          <mxGeometry x="389.06" y="197" width="130" height="130" as="geometry" />
        </mxCell>
        <mxCell id="xyXlI8KWneuc3D06vrpU-31" value="&lt;b style=&quot;border-color: var(--border-color);&quot;&gt;&lt;font style=&quot;font-size: 18px;&quot;&gt;Logout&lt;/font&gt;&lt;/b&gt;" style="ellipse;whiteSpace=wrap;html=1;aspect=fixed;" parent="1" vertex="1">
          <mxGeometry x="715" y="40" width="80" height="80" as="geometry" />
        </mxCell>
        <mxCell id="xyXlI8KWneuc3D06vrpU-53" style="edgeStyle=orthogonalEdgeStyle;rounded=0;orthogonalLoop=1;jettySize=auto;html=1;" parent="1" source="xyXlI8KWneuc3D06vrpU-32" target="xyXlI8KWneuc3D06vrpU-31" edge="1">
          <mxGeometry relative="1" as="geometry" />
        </mxCell>
        <mxCell id="xyXlI8KWneuc3D06vrpU-54" style="edgeStyle=orthogonalEdgeStyle;rounded=0;orthogonalLoop=1;jettySize=auto;html=1;entryX=0.463;entryY=-0.065;entryDx=0;entryDy=0;entryPerimeter=0;" parent="1" source="xyXlI8KWneuc3D06vrpU-32" target="xyXlI8KWneuc3D06vrpU-33" edge="1">
          <mxGeometry relative="1" as="geometry" />
        </mxCell>
        <mxCell id="xyXlI8KWneuc3D06vrpU-32" value="&lt;b style=&quot;border-color: var(--border-color);&quot;&gt;&lt;font style=&quot;font-size: 18px;&quot;&gt;Dashboard&lt;/font&gt;&lt;/b&gt;" style="ellipse;whiteSpace=wrap;html=1;aspect=fixed;" parent="1" vertex="1">
          <mxGeometry x="700" y="210" width="110" height="110" as="geometry" />
        </mxCell>
        <mxCell id="xyXlI8KWneuc3D06vrpU-33" value="&lt;b style=&quot;border-color: var(--border-color);&quot;&gt;&lt;font style=&quot;font-size: 18px;&quot;&gt;Internal Campus system&lt;/font&gt;&lt;/b&gt;" style="ellipse;whiteSpace=wrap;html=1;aspect=fixed;" parent="1" vertex="1">
          <mxGeometry x="700" y="400" width="120" height="120" as="geometry" />
        </mxCell>
        <mxCell id="xyXlI8KWneuc3D06vrpU-49" value="" style="endArrow=classic;startArrow=classic;html=1;rounded=0;" parent="1" target="xyXlI8KWneuc3D06vrpU-30" edge="1">
          <mxGeometry width="50" height="50" relative="1" as="geometry">
            <mxPoint x="450" y="420" as="sourcePoint" />
            <mxPoint x="500" y="370" as="targetPoint" />
          </mxGeometry>
        </mxCell>
        <mxCell id="xyXlI8KWneuc3D06vrpU-55" value="&lt;font style=&quot;font-size: 24px;&quot;&gt;&lt;b&gt;Level 1 DFD&lt;/b&gt;&lt;/font&gt;" style="text;html=1;align=center;verticalAlign=middle;resizable=0;points=[];autosize=1;strokeColor=none;fillColor=none;" parent="1" vertex="1">
          <mxGeometry x="350" y="643" width="160" height="40" as="geometry" />
        </mxCell>
        <mxCell id="xyXlI8KWneuc3D06vrpU-56" value="&lt;font style=&quot;font-size: 18px;&quot;&gt;&lt;b&gt;FIGURE2.1&lt;/b&gt;&lt;/font&gt;" style="text;html=1;align=center;verticalAlign=middle;resizable=0;points=[];autosize=1;strokeColor=none;fillColor=none;" parent="1" vertex="1">
          <mxGeometry x="370" y="690" width="120" height="40" as="geometry" />
        </mxCell>
      </root>
    </mxGraphModel>
  </diagram>
</mxfile>
